<svg height="40" viewBox="0 0 136 40" width="136" xmlns="http://www.w3.org/2000/svg" xmlns:xlink="http://www.w3.org/1999/xlink"><linearGradient id="a" x1="91.48951%" x2="-38.317316%" y1="4.960407%" y2="71.909245%"><stop offset="0" stop-color="#00a0ff"/><stop offset=".0066" stop-color="#00a1ff"/><stop offset=".2601" stop-color="#00beff"/><stop offset=".5122" stop-color="#00d2ff"/><stop offset=".7604" stop-color="#00dfff"/><stop offset="1" stop-color="#00e3ff"/></linearGradient><linearGradient id="b" x1="107.585647%" x2="-130.492257%" y1="50.016365%" y2="50.016365%"><stop offset="0" stop-color="#ffe000"/><stop offset=".4087" stop-color="#ffbd00"/><stop offset=".7754" stop-color="#ffa500"/><stop offset="1" stop-color="#ff9c00"/></linearGradient><linearGradient id="c" x1="86.237735%" x2="-50.131376%" y1="117.851014%" y2="294.785269%"><stop offset="0" stop-color="#ff3a44"/><stop offset="1" stop-color="#c31162"/></linearGradient><linearGradient id="d" x1="-18.801288%" x2="42.093626%" y1="-154.171052%" y2="-75.136555%"><stop offset="0" stop-color="#32a071"/><stop offset=".0685" stop-color="#2da771"/><stop offset=".4762" stop-color="#15cf74"/><stop offset=".8009" stop-color="#06e775"/><stop offset="1" stop-color="#00f076"/></linearGradient><g fill="none" fill-rule="evenodd" transform="matrix(1 0 0 -1 .204428 40.85025)"><path d="m130.334922.9072975h-125.2990375c-2.75532583 0-5.0119615 2.23038035-5.0119615 4.95364875v29.72189245c0 2.7232685 2.25663567 4.9536488 5.0119615 4.9536488h125.2990375c2.755326 0 5.011961-2.2303803 5.011961-4.9536488v-29.72189245c0-2.7232684-2.256635-4.95364875-5.011961-4.95364875z" fill="#000"/><g fill="#fff"><path d="m6.18225451 3.95672694c0 .82725934-.25059807 1.48980986-.74427628 1.98393632-.56760464.58576897-1.30686896.88051107-2.212781.88051107-.86581635 0-1.60508068-.29969575-2.21152802-.89041836-.60770033-.5993915-.910924-1.33500834-.910924-2.21551941 0-.88051106.30322367-1.6161279.910924-2.21056575.60644734-.59567626 1.34571167-.89537201 2.21152802-.89537201.43102868 0 .84200953.08792726 1.23419551.25139767.390933.16470882.70919256.38762301.93974279.66255052l-.52374998.52260994c-.40220991-.46935822-.94976671-.70094129-1.65018832-.70094129-.63150715 0-1.17906395.21796054-1.64392338.65759687-.45984746.44087474-.69039769 1.01178275-.69039769 1.71272405s.23055023 1.27680297.69039769 1.71767771c.46485943.43468267 1.01241623.65759687 1.64392338.65759687.67034985 0 1.23419551-.2229142 1.6790071-.66255052.29319975-.29102687.45984747-.69227242.50370213-1.20497506h-2.18270923v-.71580225h2.91194963c.03508373.15480153.04510765.3046494.04510765.44954363z" transform="matrix(1 0 0 -1 41.372605 34.344427)"/><path d="m3.53707815 1.47494892h-2.73527799v1.88238652h2.46588506v.71580224h-2.46588506v1.88238653h2.73527799v.72942478h-3.50962604v-5.93942485h3.50962604z" transform="matrix(1 0 0 -1 48.637557 34.344427)"/><path d="m2.7853976 6.68494899h-.77434805v-5.21000007h-1.67775411v-.72942478h4.13110927v.72942478h-1.67900711z" transform="matrix(1 0 0 -1 52.649519 34.344427)"/><path d="m.18908787 6.68494899v-5.93942485h.77309506v5.93942485z" transform="matrix(1 0 0 -1 59.914471 34.344427)"/><path d="m2.88313085 6.68494899h-.7680831v-5.21000007h-1.68401906v-.72942478h4.13612123v.72942478h-1.68401907z" transform="matrix(1 0 0 -1 61.420451 34.344427)"/><path d="m6.12336396 5.92084867c-.59266444.60062991-1.3269168.90032566-2.20275708.90032566-.88085223 0-1.61510459-.29969575-2.20776904-.90032566-.59141145-.5993915-.88586419-1.33500834-.88586419-2.20561211s.29445274-1.6062206.88586419-2.2056121c.59266445-.60062991 1.32691681-.90032566 2.20776904-.90032566.87082831 0 1.60508067.29969575 2.19774512.90527931.59642342.60434514.89087616 1.33500833.89087616 2.20065845 0 .87060377-.29445274 1.60622061-.8858642 2.20561211zm-3.83790952-.4978417c.44606458.44458997.98860941.66750417 1.63515244.66750417.64153108 0 1.18908787-.2229142 1.63014048-.66750417.44481158-.44458998.67034985-1.01549799.67034985-1.70777041 0-.69227241-.22553827-1.26318043-.67034985-1.7077704-.44105261-.44458998-.9886094-.66750417-1.63014048-.66750417-.64654303 0-1.18908786.22291419-1.63515244.66750417-.44481158.44458997-.67034985 1.01549799-.67034985 1.7077704 0 .69227242.22553827 1.26318043.67034985 1.70777041z" transform="matrix(1 0 0 -1 67.685403 34.344427)"/><path d="m.57762856 6.68494899v-5.93942485h.93974278l2.92197356 4.61927746h.03383074l-.03383074-1.14181604v-3.47746142h.77309506v5.93942485h-.8069258l-3.0598025-4.8471453h-.03383074l.03383074 1.14676968v3.70037562z" transform="matrix(1 0 0 -1 75.203345 34.344427)"/><path d="m68.3219224 18.9856386c-2.354369 0-4.2777092-1.7709294-4.2777092-4.2143167 0-2.4235726 1.9233402-4.2130782 4.2777092-4.2130782 2.3593808 0 4.2827211 1.7895056 4.2827211 4.2130782 0 2.4433873-1.9233403 4.2143167-4.2827211 4.2143167zm0-6.7679226c-1.2918331 0-2.4032356 1.0538888-2.4032356 2.5536059 0 1.5195318 1.1114025 2.5548444 2.4032356 2.5548444 1.291833 0 2.4082475-1.0353126 2.4082475-2.5548444 0-1.4997171-1.1164145-2.5536059-2.4082475-2.5536059zm-9.3335253 6.7679226c-2.3593809 0-4.2777092-1.7709294-4.2777092-4.2143167 0-2.4235726 1.9183283-4.2130782 4.2777092-4.2130782 2.3581278 0 4.2777091 1.7895056 4.2777091 4.2130782 0 2.4433873-1.9195813 4.2143167-4.2777091 4.2143167zm0-6.7679226c-1.2930861 0-2.4082475 1.0538888-2.4082475 2.5536059 0 1.5195318 1.1151614 2.5548444 2.4082475 2.5548444 1.291833 0 2.4032355-1.0353126 2.4032355-2.5548444 0-1.4997171-1.1114025-2.5536059-2.4032355-2.5536059zm-11.1065067 5.4762587v-1.790744h4.3265757c-.126552-1.0006371-.4648594-1.7362539-.9835974-2.2489566-.6315072-.619206-1.6151046-1.3065248-3.3429783-1.3065248-2.6626046 0-4.7475806 2.1238769-4.7475806 4.7555028s2.084976 4.7555028 4.7475806 4.7555028c1.4396859 0 2.4871859-.5560471 3.2602809-1.276803l1.2767972 1.261942c-1.0813307 1.0204517-2.5197636 1.8043666-4.5370781 1.8043666-3.651214 0-6.7197874-2.9362753-6.7197874-6.5450084s3.0685734-6.5450084 6.7197874-6.5450084c1.9734598 0 3.4557474.6390207 4.6210285 1.8378037 1.1940998 1.1802068 1.5662379 2.8396791 1.5662379 4.1796411 0 .4161065-.0350837.7987759-.0977332 1.1182862zm45.4158891-1.3882601c-.3520903.9424317-1.4384329 2.679924-3.6512139 2.679924-2.1927332 0-4.0183402-1.7077704-4.0183402-4.2143167 0-2.3604136 1.8068121-4.2130782 4.2288425-4.2130782 1.958424 0 3.0886213 1.1802068 3.5534807 1.8675256l-1.4534688.9572926c-.4849073-.7009413-1.1452332-1.1653459-2.1000119-1.1653459-.9485137 0-1.6288875.429729-2.0649281 1.276803l5.7023592 2.3319301zm-5.8138753-1.403121c-.0488667 1.6247968 1.2767972 2.4570098 2.2265639 2.4570098.7442762 0 1.3757834-.3678084 1.5862858-.8941336zm-4.6348114-4.0879986h1.8744736v12.3841219h-1.8744736zm-3.0698265 7.2323272h-.0626495c-.4210047.492888-1.2241716.9387164-2.2415998.9387164-2.1350955 0-4.0872546-1.8526646-4.0872546-4.2279392 0-2.361652 1.9521591-4.1994557 4.0872546-4.1994557 1.0174282 0 1.8205951.4495436 2.2415998.9572926h.0626495v-.6043451c0-1.61117431-.8708283-2.47682442-2.2754305-2.47682442-1.1452332 0-1.8556787.81735204-2.1488785 1.5046708l-1.6301404-.67245781c.4698713-1.1170478 1.7140908-2.49168533 3.7790189-2.49168533 2.1977451 0 4.0521709 1.27804138 4.0521709 4.38769436v7.5666985h-1.7767404zm-2.1438665-5.8292062c-1.2918331 0-2.3731638 1.0687497-2.3731638 2.5399834 0 1.4848562 1.0813307 2.5684669 2.3731638 2.5684669 1.2730382 0 2.2766835-1.0836107 2.2766835-2.5684669 0-1.4712337-1.0036453-2.5399834-2.2766835-2.5399834zm24.4383242 10.9810009h-4.4831995v-12.3841219h1.8694617v4.6923438h2.6137378c2.076205 0 4.112315 1.4848562 4.112315 3.8465082 0 2.3604137-2.041122 3.8452699-4.112315 3.8452699zm.048867-5.9691468h-2.6626048v4.2465154h2.6626048c1.395831 0 2.192733-1.1455313 2.192733-2.1226385 0-.958531-.796902-2.1238769-2.192733-2.1238769zm11.55633 1.7795983c-1.350724 0-2.755326-.5894842-3.332954-1.896009l1.658959-.6873188c.357102.6873188 1.013669.910233 1.707826.910233.969814 0 1.953412-.5758617 1.968448-1.5925981v-.1300333c-.338308.1931923-1.062536.4792655-1.953412.4792655-1.786765 0-3.60736-.9721535-3.60736-2.7864274 0-1.6594723 1.463493-2.728222 3.108669-2.728222 1.258003 0 1.952159.5610007 2.3882 1.2136439h.063903v-.9572926h1.805559v4.7505491c0 2.1957049-1.65896 3.4242097-3.807838 3.4242097zm-.225538-6.7864987c-.61146 0-1.463493.2996957-1.463493 1.0489351 0 .958531 1.062536 1.3263394 1.982231 1.3263394.823214 0 1.209135-.1795697 1.709079-.4161065-.1466-1.1467696-1.145234-1.959168-2.227817-1.959168zm10.611575 6.5152865-2.148878-5.3685169h-.063903l-2.221552 5.3685169h-2.016061l3.337966-7.5023011-1.904545-4.17468744h1.953412l5.143525 11.67698854zm-16.851467-7.9233612h1.874473v12.3841219h-1.874473z"/></g><path d="m1.68903103 25.9682652c-.29445274-.3046494-.46485943-.7789613-.46485943-1.3932138v-21.90998837c0-.61425245.17040669-1.08856432.46485943-1.39321371l.07267344-.06687426 12.42214653 12.27266474v.2897885l-12.42214653 12.2726648z" fill="url(#a)" transform="translate(8.794856 7.099358)"/><path d="m4.53707815.71580224-4.13612123 4.09295228v.28978846l4.14113319 4.09295228.09272129-.05325173 4.90420432-2.75794394c1.39959028-.7826765 1.39959028-2.07062518 0-2.85825533l-4.90420432-2.75299029z" fill="url(#b)" transform="translate(22.57775 15.768244)"/><path d="m17.1647151 9.43793928-4.2338544 4.18459482-12.49482005-12.35068478c.46485943-.48298076 1.22291861-.54118613 2.08497598-.05820538z" fill="url(#c)" transform="translate(10.047846 7.099358)"/><path d="m17.1647151 4.18459478-14.64369847 8.22429532c-.86205737.4780271-1.62011655.4198218-2.08497598-.063159l12.49482005-12.3457311z" fill="url(#d)" transform="translate(10.047846 20.721892)"/></g></svg>